<?xml version="1.0" standalone="no"?>
<!DOCTYPE svg PUBLIC "-//W3C//DTD SVG 20010904//EN"
 "http://www.w3.org/TR/2001/REC-SVG-20010904/DTD/svg10.dtd">
<svg version="1.0" xmlns="http://www.w3.org/2000/svg"
 width="1067.000000pt" height="1067.000000pt" viewBox="0 0 1067.000000 1067.000000"
 preserveAspectRatio="xMidYMid meet">

<g transform="translate(0.000000,1067.000000) scale(0.100000,-0.100000)"
fill="#000000" stroke="none">
<path d="M5300 9753 c-14 -10 -38 -25 -55 -34 -16 -8 -75 -42 -130 -74 -55
-32 -120 -69 -145 -83 -25 -14 -56 -33 -69 -44 -13 -10 -28 -18 -34 -18 -5 0
-34 -16 -63 -35 -29 -19 -55 -35 -58 -35 -3 0 -35 -18 -71 -40 -36 -22 -68
-40 -70 -40 -3 0 -24 -12 -48 -27 -23 -15 -59 -37 -79 -48 -47 -26 -187 -106
-213 -122 -11 -7 -31 -18 -45 -25 -14 -7 -43 -23 -64 -36 -22 -13 -58 -34 -80
-47 -23 -12 -81 -46 -131 -75 -49 -29 -108 -63 -131 -76 -22 -12 -58 -33 -80
-46 -21 -13 -50 -29 -64 -36 -29 -15 -54 -30 -92 -55 -15 -10 -49 -30 -77 -45
-28 -15 -87 -48 -132 -74 -45 -27 -86 -48 -90 -48 -5 0 -9 -4 -9 -10 0 -5 -6
-10 -13 -10 -8 0 -32 -13 -53 -29 -22 -15 -58 -36 -79 -46 -22 -11 -54 -29
-71 -42 -17 -13 -36 -23 -41 -23 -6 0 -38 -18 -71 -40 -33 -22 -64 -40 -69
-40 -6 0 -28 -13 -49 -28 -21 -15 -59 -38 -84 -50 -25 -13 -85 -47 -135 -77
-49 -30 -101 -60 -115 -67 -14 -7 -47 -26 -75 -43 -27 -16 -62 -37 -77 -45
-32 -17 -173 -99 -268 -155 -36 -21 -83 -48 -105 -59 -22 -12 -65 -37 -95 -56
-30 -19 -75 -46 -100 -58 -25 -13 -70 -39 -100 -57 -30 -18 -77 -45 -105 -60
-27 -15 -56 -32 -63 -37 -9 -8 -12 -461 -10 -2227 l3 -2216 40 -22 c46 -26
109 -62 180 -103 28 -16 59 -34 70 -39 11 -5 37 -21 58 -35 21 -15 53 -33 70
-41 35 -16 56 -29 104 -62 17 -13 37 -23 43 -23 6 0 39 -18 72 -40 34 -22 66
-40 72 -40 5 0 17 -6 25 -14 9 -7 43 -28 76 -46 33 -18 78 -46 99 -61 22 -16
45 -29 52 -29 6 0 35 -16 63 -35 28 -19 55 -35 61 -35 6 0 26 -11 43 -23 30
-22 100 -64 215 -128 46 -26 140 -80 212 -122 19 -11 53 -30 75 -42 22 -12 65
-37 95 -55 30 -18 62 -36 70 -41 74 -42 169 -96 185 -106 11 -7 29 -16 40 -22
11 -5 37 -21 58 -35 21 -14 41 -26 44 -26 11 0 238 -133 259 -152 11 -10 26
-18 32 -18 6 0 35 -15 64 -33 29 -19 60 -37 68 -40 8 -4 35 -21 60 -37 25 -16
64 -39 88 -50 24 -11 58 -31 76 -45 18 -14 37 -25 42 -25 6 0 41 -20 78 -45
38 -25 73 -45 78 -45 4 0 32 -15 61 -33 28 -18 66 -40 82 -49 17 -9 72 -40
124 -70 51 -29 110 -62 130 -73 20 -11 54 -33 76 -48 22 -15 44 -27 48 -27 5
0 21 -8 35 -19 15 -10 54 -33 87 -51 33 -18 74 -41 90 -51 17 -10 49 -27 72
-39 23 -11 47 -27 53 -35 10 -12 17 -11 44 10 17 13 42 28 56 34 14 6 43 22
65 36 22 14 63 37 90 52 28 15 59 33 70 40 11 7 31 17 45 23 14 6 38 21 55 33
16 12 44 29 60 37 17 8 41 22 55 31 38 25 200 120 240 141 19 10 53 30 75 43
22 14 66 39 97 55 31 16 59 34 63 40 3 5 13 10 21 10 8 0 37 16 65 35 28 19
55 35 60 35 4 0 27 12 51 28 71 45 82 51 115 66 18 8 48 26 66 40 19 15 39 26
46 26 6 0 35 16 64 35 28 19 55 35 59 35 4 0 34 17 65 37 56 36 105 64 188
106 22 11 47 26 55 33 8 6 31 21 50 31 19 11 80 46 135 78 55 33 119 69 142
81 23 12 55 31 71 43 17 11 32 21 35 21 3 0 42 22 86 49 44 28 98 58 118 68
21 9 59 31 84 48 26 16 70 44 100 60 29 17 73 42 98 57 25 15 66 37 91 50 25
13 71 41 102 61 31 20 60 37 64 37 3 0 26 14 51 30 24 17 47 30 52 30 4 0 35
18 69 40 33 22 68 40 77 40 8 0 15 4 15 8 0 5 20 19 45 33 73 38 97 52 150 85
28 17 57 34 65 38 8 4 24 12 35 19 23 14 159 92 213 123 l37 20 0 2219 0 2219
-115 68 c-63 37 -135 77 -160 90 -25 12 -75 42 -111 65 -36 24 -70 43 -74 43
-8 0 -97 52 -182 107 -29 18 -57 33 -63 33 -10 0 -22 7 -97 58 -18 12 -35 22
-39 22 -4 0 -34 17 -68 38 -34 21 -72 43 -86 50 -14 7 -34 18 -45 25 -18 11
-91 53 -221 127 -24 14 -81 47 -126 74 -46 27 -108 62 -138 79 -30 16 -66 37
-80 46 -14 9 -36 22 -50 29 -14 6 -32 16 -40 22 -8 5 -62 37 -120 71 -58 33
-130 76 -162 95 -31 19 -59 34 -62 34 -3 0 -30 16 -61 35 -30 20 -63 39 -73
42 -9 4 -43 24 -74 45 -31 21 -61 38 -66 38 -5 0 -28 14 -50 30 -23 17 -45 30
-50 30 -4 0 -41 21 -82 46 -41 26 -82 49 -90 52 -8 3 -33 18 -55 33 -22 15
-56 34 -75 43 -40 18 -123 66 -130 75 -3 3 -25 16 -50 29 -25 13 -54 28 -65
35 -11 7 -47 28 -80 47 -33 19 -69 40 -80 47 -11 6 -34 19 -52 28 -18 9 -37
23 -44 31 -6 8 -18 14 -26 14 -8 0 -35 14 -60 30 -24 17 -59 37 -76 45 -18 9
-57 30 -87 48 -133 80 -302 176 -319 182 -11 3 -25 12 -31 20 -16 19 -30 19
-60 -2z m79 -285 c39 -24 64 -39 133 -77 23 -13 45 -26 48 -30 3 -3 21 -14 40
-23 41 -21 111 -60 160 -92 19 -12 43 -25 53 -29 10 -4 76 -41 145 -82 136
-81 134 -80 232 -135 118 -67 215 -123 250 -145 35 -22 77 -46 175 -100 28
-16 68 -40 90 -54 22 -14 56 -34 75 -43 19 -10 69 -39 110 -63 41 -25 83 -48
93 -51 9 -4 17 -10 17 -14 0 -5 10 -12 22 -16 12 -3 45 -21 72 -38 58 -35 96
-57 146 -83 30 -16 103 -59 168 -98 37 -23 176 -102 221 -126 26 -14 72 -41
102 -60 30 -18 68 -41 84 -50 30 -16 103 -58 245 -139 41 -24 91 -53 110 -65
19 -13 76 -45 125 -73 50 -27 131 -74 180 -102 50 -29 108 -63 130 -75 91 -51
140 -79 145 -84 6 -7 71 -44 128 -73 l42 -22 0 -441 c0 -282 4 -445 10 -451 7
-7 9 -561 8 -1644 l-3 -1633 -80 -48 c-44 -27 -83 -48 -87 -49 -4 0 -32 -16
-62 -35 -30 -19 -60 -35 -66 -35 -5 0 -10 -4 -10 -10 0 -5 -4 -10 -9 -10 -8 0
-178 -95 -324 -182 -90 -54 -239 -138 -295 -168 -26 -14 -73 -42 -105 -62 -31
-21 -59 -38 -61 -38 -2 0 -43 -23 -92 -52 -49 -28 -107 -61 -128 -72 -22 -12
-45 -25 -50 -29 -20 -16 -91 -57 -126 -73 -19 -9 -42 -22 -50 -29 -8 -7 -40
-26 -70 -42 -84 -46 -201 -113 -241 -140 -19 -12 -38 -23 -42 -23 -4 0 -31
-16 -60 -35 -28 -19 -57 -35 -64 -35 -7 0 -13 -4 -13 -10 0 -5 -6 -10 -12 -11
-7 0 -33 -13 -58 -29 -25 -16 -63 -38 -85 -49 -22 -12 -80 -46 -130 -76 -49
-30 -116 -69 -149 -87 -88 -49 -192 -110 -361 -209 -49 -29 -111 -64 -136 -78
-25 -14 -85 -48 -132 -76 -48 -27 -100 -57 -115 -65 -15 -8 -49 -28 -77 -45
-54 -32 -63 -37 -189 -108 -47 -27 -88 -53 -91 -58 -8 -12 -52 -12 -60 0 -3 5
-44 31 -91 58 -126 71 -135 76 -189 108 -56 33 -83 49 -147 84 -23 13 -45 26
-48 30 -3 3 -21 14 -40 24 -19 10 -64 35 -100 57 -84 51 -196 115 -376 216
-147 83 -188 106 -293 167 -62 37 -115 67 -117 67 -2 0 -28 16 -58 35 -30 19
-59 35 -65 35 -5 0 -11 3 -13 8 -1 4 -19 15 -38 25 -19 10 -63 35 -97 55 -90
54 -210 124 -257 150 -42 23 -149 86 -176 103 -8 5 -34 19 -57 31 -24 12 -43
26 -43 30 0 4 -6 8 -13 8 -7 0 -28 11 -47 23 -19 13 -74 45 -122 70 -48 25
-101 55 -118 67 -16 11 -42 28 -57 38 -16 11 -48 29 -73 41 -25 12 -63 32 -85
45 -22 13 -71 42 -110 63 -38 22 -110 64 -160 93 -49 29 -106 63 -126 74 -20
12 -58 33 -84 48 -26 16 -51 28 -56 28 -5 0 -9 5 -9 10 0 6 -4 10 -9 10 -4 0
-48 23 -97 52 -49 28 -112 64 -140 80 -31 17 -54 37 -58 51 -3 12 -6 945 -6
2073 0 1940 1 2051 18 2068 21 20 147 96 161 96 5 0 11 4 13 8 3 7 38 29 143
87 22 12 81 46 130 75 217 127 288 167 356 204 30 16 81 45 114 66 120 73 183
110 189 110 3 0 31 16 62 36 31 20 83 50 115 68 55 29 195 109 231 131 9 5 43
25 75 44 57 34 69 41 164 93 25 14 63 37 85 50 21 14 46 28 54 31 8 4 33 18
55 32 22 14 65 39 95 55 30 17 93 53 140 81 47 28 110 64 140 81 30 17 67 39
82 49 14 11 30 19 36 19 5 0 20 8 33 18 13 10 56 36 94 57 39 21 81 46 95 55
14 10 48 30 75 44 54 29 80 44 220 126 50 30 122 71 160 93 39 22 88 50 110
63 22 13 60 35 85 49 25 14 52 30 60 35 37 25 206 119 214 120 5 0 25 -10 45
-22z"/>
<path d="M7050 7351 c-58 -4 -93 -10 -90 -16 3 -5 20 -9 38 -9 17 1 32 -3 32
-7 0 -5 -13 -9 -30 -9 -16 0 -30 -3 -30 -7 0 -5 -36 -45 -79 -90 -80 -83 -141
-175 -179 -268 -30 -76 -82 -239 -82 -258 0 -9 -6 -31 -14 -49 -12 -29 -53
-157 -103 -328 -66 -224 -136 -335 -369 -583 -30 -32 -62 -69 -70 -83 -11 -16
-26 -24 -44 -24 -24 0 -28 5 -34 39 -3 21 -13 51 -21 67 -8 16 -15 38 -15 49
-1 11 -7 31 -15 45 -8 14 -15 36 -15 50 0 14 -9 43 -20 65 -11 22 -19 54 -20
72 0 42 -9 63 -27 63 -10 0 -14 9 -13 28 1 15 1 38 0 52 l-1 25 -10 -24 c-5
-14 -9 -44 -8 -68 3 -50 -5 -63 -21 -34 -15 28 -66 29 -75 1 -4 -11 -15 -20
-27 -20 -15 0 -18 -4 -13 -17 8 -18 21 -88 31 -170 4 -29 2 -43 -5 -43 -7 0
-14 7 -17 15 -9 22 -21 18 -40 -10 -16 -25 -16 -27 9 -53 17 -17 25 -35 21
-47 -2 -11 7 -42 20 -70 14 -27 23 -52 20 -54 -9 -9 -44 33 -44 53 0 12 -9 29
-21 39 -13 11 -18 25 -14 36 4 13 -3 29 -20 47 -15 16 -24 36 -22 46 3 9 2 18
-2 20 -13 6 -61 97 -61 115 0 11 -4 23 -9 29 -16 16 -221 644 -221 677 0 9 -4
25 -9 35 -5 9 -13 36 -18 59 -8 33 -7 43 4 47 8 4 17 -4 23 -19 8 -22 16 -25
58 -25 40 0 52 -5 71 -27 13 -14 27 -38 31 -52 l7 -26 5 27 c6 33 -42 178 -97
293 -56 117 -118 206 -188 271 -105 98 -212 129 -393 114 -125 -10 -169 -22
-272 -73 -130 -66 -135 -69 -166 -94 l-29 -24 -41 39 c-66 62 -128 108 -171
124 -92 36 -293 31 -350 -8 -11 -8 -27 -14 -36 -14 -9 0 -24 -9 -34 -20 -10
-11 -24 -20 -32 -20 -15 0 -171 -157 -226 -227 -55 -70 -160 -231 -203 -310
-20 -37 -45 -79 -55 -92 -11 -13 -19 -30 -19 -38 0 -7 -10 -30 -23 -51 -13
-20 -36 -64 -52 -97 -15 -33 -40 -78 -54 -100 -14 -22 -36 -61 -49 -87 -12
-27 -25 -48 -27 -48 -3 0 -5 12 -5 27 0 14 3 23 7 19 4 -3 17 21 30 54 12 34
29 68 38 76 8 9 15 26 15 38 0 13 7 29 15 36 8 7 15 18 15 25 0 7 7 18 15 25
8 7 15 21 15 31 0 9 7 24 15 32 7 8 17 26 21 41 3 14 10 26 14 26 4 0 13 14
19 30 5 17 15 30 20 30 6 0 11 11 11 25 0 33 -15 32 -29 -2 -11 -30 -20 -43
-63 -106 -16 -22 -28 -44 -28 -50 0 -5 -13 -29 -30 -54 -16 -24 -30 -47 -30
-50 0 -8 -37 -91 -50 -113 -20 -33 -50 -103 -50 -117 0 -8 -9 -26 -20 -40 -21
-27 -27 -68 -10 -78 6 -3 10 -13 10 -21 0 -8 -4 -14 -10 -14 -5 0 -10 7 -10
16 0 14 -3 14 -15 4 -8 -7 -15 -22 -15 -34 0 -11 -7 -30 -15 -40 -8 -11 -15
-34 -15 -52 0 -18 -4 -35 -9 -39 -5 -3 -12 -18 -16 -35 -3 -16 -15 -47 -26
-69 -10 -22 -19 -45 -19 -51 0 -14 -85 -226 -105 -262 -8 -14 -15 -32 -15 -38
0 -7 -7 -18 -14 -24 -13 -10 -66 -101 -128 -223 -12 -24 -19 -45 -16 -48 3 -3
31 -2 62 3 43 7 59 6 67 -5 9 -10 49 -13 171 -13 163 0 271 17 356 56 18 8 37
12 43 9 5 -4 21 0 34 9 13 9 32 16 41 16 9 0 39 14 66 30 26 17 53 30 58 30 5
0 45 35 88 78 72 71 140 168 157 224 4 12 14 32 21 43 8 11 14 31 14 46 0 15
7 32 15 39 10 8 15 31 15 67 0 30 4 52 9 49 11 -7 21 17 21 47 -1 22 -1 22
-16 2 -8 -11 -22 -19 -31 -17 -12 3 -14 -3 -10 -24 7 -36 -8 -73 -27 -70 -29
4 -31 17 -6 36 l25 20 -27 0 c-18 0 -28 -5 -28 -15 0 -8 -4 -15 -10 -15 -5 0
-10 -8 -10 -19 0 -20 -46 -56 -54 -43 -8 13 38 102 53 102 9 0 12 8 9 25 -3
14 1 30 8 36 8 6 14 19 14 28 0 9 4 21 9 27 18 19 111 202 111 218 0 9 13 31
30 49 28 29 39 57 24 57 -10 0 -54 -50 -54 -61 0 -5 -13 -9 -30 -9 -16 0 -30
-4 -30 -10 0 -16 -38 -50 -56 -50 -11 0 -15 6 -11 18 2 9 6 23 8 31 2 7 -1 15
-7 18 -7 2 -15 -8 -18 -22 -4 -15 -21 -35 -41 -47 -19 -11 -35 -27 -35 -36 0
-10 -14 -30 -32 -47 -30 -30 -30 -30 -23 -5 4 14 16 37 26 52 11 14 19 30 19
35 0 4 25 46 55 92 30 46 55 86 55 88 0 2 21 33 47 71 26 37 56 81 67 97 134
195 498 585 546 585 11 0 23 -13 33 -39 31 -77 79 -171 87 -171 12 0 18 23 14
58 -2 17 1 34 6 37 6 3 10 -2 10 -12 0 -10 13 -34 28 -53 30 -36 178 -330 184
-364 4 -24 28 -34 28 -11 0 9 7 30 17 48 16 31 16 32 26 9 6 -12 14 -22 19
-22 11 0 79 -144 106 -225 11 -33 27 -73 36 -90 9 -16 16 -34 16 -39 0 -11 55
-153 81 -212 11 -23 19 -46 19 -51 0 -25 125 -299 141 -309 5 -3 9 -13 9 -23
0 -10 9 -26 20 -36 11 -10 20 -22 20 -27 0 -6 23 -43 51 -84 54 -78 154 -178
189 -189 21 -7 27 -29 11 -40 -17 -10 -102 -10 -109 0 -4 6 -32 21 -62 35 -36
17 -82 53 -142 113 -48 48 -88 91 -88 95 0 5 -11 18 -25 30 -14 12 -25 29 -25
37 0 23 -45 18 -63 -7 l-16 -23 -7 23 c-3 12 -12 22 -19 22 -6 0 -17 -10 -23
-22 l-11 -23 -7 23 c-3 12 -13 22 -20 22 -9 0 -14 11 -14 30 0 19 -5 30 -14
30 -8 0 -17 7 -20 16 -3 8 -10 13 -15 9 -14 -8 -2 -35 14 -35 9 0 13 -12 13
-32 -1 -18 4 -34 10 -36 7 -2 12 -12 12 -22 0 -10 8 -26 17 -35 9 -10 24 -30
32 -46 20 -36 119 -149 131 -149 5 0 31 -13 58 -29 86 -51 78 -50 792 -54 449
-2 580 0 600 10 14 7 33 13 43 13 27 0 131 56 195 104 74 57 211 201 262 276
13 19 34 47 48 62 18 20 23 33 18 52 -3 13 -3 33 1 43 6 15 9 13 14 -12 5 -27
7 -28 14 -10 5 11 17 29 28 39 23 22 6 36 -18 16 -26 -21 -18 18 8 43 12 12
28 36 36 52 7 17 27 53 46 80 18 28 52 88 77 135 24 47 50 96 58 110 26 49 29
56 50 100 12 25 35 72 51 105 30 63 38 110 17 103 -7 -3 -15 -18 -18 -34 -3
-16 -10 -27 -15 -24 -6 3 -11 -10 -13 -27 -2 -21 -9 -33 -18 -33 -8 0 -14 -9
-14 -20 0 -11 -7 -23 -15 -26 -8 -4 -15 -14 -15 -24 0 -25 -19 -35 -26 -16 -3
9 -14 16 -24 16 -14 0 -20 -9 -22 -32 -3 -34 -15 -43 -38 -28 -13 8 -13 13 3
41 9 17 17 41 17 53 0 12 6 30 13 41 8 11 29 58 47 105 35 90 277 588 354 728
25 46 46 85 46 88 0 6 -471 2 -590 -5z m-1765 -529 c0 -18 -20 -15 -23 4 -3
10 1 15 10 12 7 -3 13 -10 13 -16z m1861 -574 c-7 -42 -19 -58 -43 -58 -17 0
-16 25 1 42 7 8 17 24 20 36 13 40 29 25 22 -20z m-4194 -100 c-9 -9 -12 -7
-12 12 0 19 3 21 12 12 9 -9 9 -15 0 -24z m2798 -413 c0 -8 -2 -15 -4 -15 -2
0 -6 7 -10 15 -3 8 -1 15 4 15 6 0 10 -7 10 -15z m-2239 -28 c-8 -8 -11 -7
-11 4 0 20 13 34 18 19 3 -7 -1 -17 -7 -23z m-26 -58 c-10 -15 -25 -10 -19 6
4 8 10 12 15 9 5 -3 7 -10 4 -15z m2302 -51 c-3 -8 -6 -5 -6 6 -1 11 2 17 5
13 3 -3 4 -12 1 -19z m-2337 -22 c-14 -14 -22 -2 -14 18 5 14 9 15 15 4 4 -7
4 -17 -1 -22z m-34 -63 c-11 -11 -19 6 -11 24 8 17 8 17 12 0 3 -10 2 -21 -1
-24z m2354 9 c0 -15 -2 -15 -10 -2 -13 20 -13 33 0 25 6 -3 10 -14 10 -23z
m330 2 c0 -8 -5 -12 -10 -9 -6 4 -8 11 -5 16 9 14 15 11 15 -7z m-286 -39 c-6
-16 -24 -21 -24 -7 0 11 11 22 21 22 5 0 6 -7 3 -15z m-2435 -38 c-8 -7 -19
-21 -23 -32 -6 -14 -10 -16 -13 -7 -3 7 2 21 11 31 9 10 16 24 16 31 0 11 2
12 13 1 10 -10 9 -15 -4 -24z m2760 1 c-8 -14 -14 -17 -22 -9 -7 7 -6 15 3 25
17 22 32 9 19 -16z m-2853 -132 c-19 -20 -40 -36 -47 -36 -6 0 -1 10 13 23 14
13 34 36 44 52 14 22 20 25 22 13 2 -9 -12 -33 -32 -52z m-662 -44 c-4 -34
-11 -62 -17 -62 -10 0 -4 101 8 120 13 21 15 4 9 -58z m606 -16 c0 -11 -19
-15 -25 -6 -3 5 1 10 9 10 9 0 16 -2 16 -4z"/>
<path d="M6857 7313 c-26 -26 29 -35 68 -11 l30 18 -46 0 c-25 0 -49 -3 -52
-7z"/>
<path d="M6788 7270 c-7 -11 -21 -20 -30 -20 -10 0 -18 -5 -18 -11 0 -10 40
-3 50 10 3 3 19 6 35 5 40 -1 49 5 34 22 -17 20 -57 17 -71 -6z"/>
<path d="M6705 7210 c-3 -5 -1 -10 4 -10 6 0 11 5 11 10 0 6 -2 10 -4 10 -3 0
-8 -4 -11 -10z"/>
<path d="M4420 6854 c0 -25 3 -35 10 -28 15 15 17 56 3 61 -9 3 -13 -7 -13
-33z"/>
<path d="M3271 6814 c0 -11 3 -14 6 -6 3 7 2 16 -1 19 -3 4 -6 -2 -5 -13z"/>
<path d="M3235 6769 c-10 -15 3 -25 16 -12 7 7 7 13 1 17 -6 3 -14 1 -17 -5z"/>
<path d="M7405 6580 c-3 -5 -1 -10 4 -10 6 0 11 5 11 10 0 6 -2 10 -4 10 -3 0
-8 -4 -11 -10z"/>
<path d="M4681 6484 c0 -11 3 -14 6 -6 3 7 2 16 -1 19 -3 4 -6 -2 -5 -13z"/>
<path d="M3875 6441 c-3 -5 -1 -12 5 -16 5 -3 10 1 10 9 0 18 -6 21 -15 7z"/>
<path d="M5700 6101 c0 -6 5 -13 10 -16 6 -3 10 1 10 9 0 9 -4 16 -10 16 -5 0
-10 -4 -10 -9z"/>
<path d="M5630 5900 c0 -5 5 -10 10 -10 6 0 10 5 10 10 0 6 -4 10 -10 10 -5 0
-10 -4 -10 -10z"/>
<path d="M4825 5640 c3 -5 8 -10 11 -10 2 0 4 5 4 10 0 6 -5 10 -11 10 -5 0
-7 -4 -4 -10z"/>
<path d="M4900 5640 c0 -5 5 -10 11 -10 5 0 7 5 4 10 -3 6 -8 10 -11 10 -2 0
-4 -4 -4 -10z"/>
<path d="M3310 4943 c-19 -3 -39 -8 -43 -12 -4 -4 -8 -158 -8 -341 0 -343 1
-349 39 -350 7 0 23 5 34 11 20 11 20 17 17 265 -2 140 -1 254 4 255 20 2 30
-10 37 -46 4 -22 17 -62 28 -90 11 -27 34 -88 52 -135 18 -47 41 -107 52 -135
11 -27 22 -60 25 -73 6 -25 39 -52 64 -52 33 0 47 26 118 220 15 41 32 84 38
95 6 11 14 35 18 52 3 18 11 35 16 38 5 4 9 16 9 27 0 25 40 108 52 108 10 0
9 18 11 -279 2 -216 4 -245 19 -254 12 -8 24 -8 42 1 l26 12 -2 337 -3 336
-29 10 c-19 6 -41 6 -67 -2 -30 -9 -40 -18 -48 -44 -5 -18 -19 -57 -31 -87
-12 -30 -25 -66 -30 -80 -5 -14 -27 -72 -50 -130 -23 -58 -48 -126 -56 -151
-13 -42 -38 -78 -48 -68 -4 4 -32 79 -72 194 -8 22 -19 49 -24 60 -5 11 -19
47 -31 80 -64 181 -90 236 -112 233 -6 0 -28 -3 -47 -5z"/>
<path d="M6885 4940 c-53 -22 -70 -56 -77 -150 -3 -31 -6 -35 -35 -38 -38 -4
-57 -24 -48 -52 4 -13 15 -20 33 -20 51 0 51 -2 54 -219 3 -181 5 -205 21
-215 12 -8 22 -8 35 0 15 10 17 33 20 209 1 126 6 203 13 212 6 7 26 13 45 13
23 0 34 5 39 19 10 33 -4 50 -48 53 -41 3 -42 4 -44 43 -4 53 16 77 69 84 46
6 61 29 38 56 -14 16 -82 19 -115 5z"/>
<path d="M4117 4934 c-11 -12 -8 -69 5 -82 16 -16 53 -15 67 2 7 8 11 30 9 48
-3 30 -6 33 -38 36 -20 2 -39 0 -43 -4z"/>
<path d="M7120 4900 c-10 -6 -14 -28 -15 -71 0 -66 -5 -72 -58 -84 -24 -5 -28
-10 -25 -33 2 -22 9 -28 35 -30 20 -2 37 -11 43 -23 7 -12 10 -85 9 -187 -2
-107 2 -174 9 -188 18 -34 112 -55 153 -34 39 21 16 70 -32 70 -46 0 -51 16
-51 185 0 86 3 159 6 163 4 3 25 8 49 11 29 4 43 11 45 24 5 28 -17 47 -54 47
-42 0 -52 18 -46 79 6 64 -26 98 -68 71z"/>
<path d="M4457 4750 c-150 -45 -207 -297 -100 -439 33 -43 114 -81 174 -81 96
0 170 44 211 127 24 48 19 73 -17 73 -28 0 -51 -21 -77 -68 -18 -33 -72 -62
-118 -62 -36 0 -89 37 -114 80 -17 28 -21 52 -20 122 0 79 3 89 28 123 51 67
136 84 195 40 19 -13 39 -34 45 -47 14 -28 82 -39 92 -15 14 38 -71 133 -132
148 -48 11 -129 10 -167 -1z"/>
<path d="M5024 4751 c-11 -5 -34 -23 -51 -40 -40 -39 -51 -39 -55 2 -3 29 -6
32 -38 32 l-35 0 -3 -242 c-2 -235 -2 -242 18 -253 12 -6 30 -8 40 -5 19 6 20
16 20 138 0 73 5 149 11 170 15 56 56 96 119 116 52 17 55 20 55 52 0 31 -3
34 -30 36 -16 1 -39 -2 -51 -6z"/>
<path d="M5301 4753 c-38 -8 -97 -51 -124 -91 -52 -78 -60 -209 -16 -298 55
-114 178 -161 306 -118 91 31 142 107 150 222 8 124 -22 198 -104 256 -36 25
-53 29 -115 32 -40 1 -84 0 -97 -3z m137 -77 c59 -31 102 -108 102 -182 0 -42
-26 -112 -54 -142 -69 -77 -196 -57 -247 40 -26 51 -26 155 0 207 39 76 131
112 199 77z"/>
<path d="M5817 4751 c-45 -10 -95 -57 -107 -101 -22 -83 35 -146 160 -175 41
-9 94 -26 118 -37 68 -32 68 -89 -2 -122 -68 -32 -149 -13 -196 46 -25 31 -38
38 -58 36 -24 -3 -27 -7 -25 -37 1 -23 11 -44 34 -67 95 -98 305 -79 367 34
32 57 24 100 -26 150 -31 30 -52 40 -117 56 -153 35 -195 67 -160 120 19 29
67 42 123 32 26 -4 49 -18 76 -46 29 -31 45 -40 65 -38 68 8 0 129 -84 148
-45 11 -125 11 -168 1z"/>
<path d="M6348 4752 c-48 -12 -112 -66 -136 -114 -29 -59 -38 -150 -22 -219
29 -120 119 -189 244 -189 129 1 219 91 233 232 11 118 -31 218 -111 267 -38
24 -155 37 -208 23z m153 -85 c20 -12 46 -45 62 -77 24 -46 28 -63 24 -108
-10 -100 -83 -182 -162 -182 -45 0 -107 40 -132 85 -30 54 -32 158 -3 215 43
83 140 114 211 67z"/>
<path d="M4122 4738 c-9 -9 -12 -77 -12 -245 l0 -233 24 -11 c17 -8 29 -8 45
0 20 11 21 17 21 244 0 245 -2 257 -45 257 -12 0 -26 -5 -33 -12z"/>
<path d="M3548 4003 c7 -3 16 -2 19 1 4 3 -2 6 -13 5 -11 0 -14 -3 -6 -6z"/>
<path d="M3738 4003 c7 -3 16 -2 19 1 4 3 -2 6 -13 5 -11 0 -14 -3 -6 -6z"/>
<path d="M3775 3978 c8 -46 15 -48 15 -5 0 21 -5 37 -10 37 -6 0 -8 -13 -5
-32z"/>
<path d="M4090 3996 c0 -24 17 -28 23 -6 3 13 0 20 -9 20 -8 0 -14 -6 -14 -14z"/>
<path d="M4308 4003 c17 -3 22 -11 22 -34 0 -16 5 -29 10 -29 6 0 10 16 10 35
0 33 -2 35 -32 34 -24 -1 -27 -3 -10 -6z"/>
<path d="M4651 3983 c0 -16 3 -22 6 -13 3 8 10 21 16 28 7 8 5 12 -7 12 -11 0
-16 -8 -15 -27z"/>
<path d="M4878 3998 c7 -7 13 -30 14 -52 l1 -41 6 45 c8 52 6 60 -17 60 -12 0
-13 -3 -4 -12z"/>
<path d="M5071 3998 c0 -7 4 -22 9 -33 7 -16 9 -17 9 -3 1 9 4 23 7 32 4 11 1
16 -10 16 -9 0 -16 -6 -15 -12z"/>
<path d="M6183 3837 c-1 -94 -6 -320 -10 -502 -4 -181 -7 -347 -5 -368 l3 -38
152 3 152 3 3 210 c1 116 4 216 7 223 3 9 54 12 209 12 113 0 207 3 209 8 2 4
2 52 -1 107 l-4 100 -193 -3 c-208 -4 -235 1 -235 42 0 17 -7 26 -25 30 -14 4
-31 4 -36 0 -6 -3 -13 3 -16 15 -7 26 -15 27 -31 1 -18 -29 -87 -28 -103 2
l-11 21 -18 -23 c-17 -22 -18 -22 -24 -4 -3 10 -5 90 -3 177 1 99 -2 157 -8
157 -6 0 -11 -66 -12 -173z"/>
<path d="M6939 3996 c8 -9 11 -46 9 -103 l-3 -88 -225 -5 -225 -6 228 -2 c125
-1 230 -3 233 -4 3 -2 6 48 7 110 2 103 1 112 -17 112 -15 0 -16 -3 -7 -14z"/>
<path d="M5740 3970 c0 -5 7 -10 15 -10 8 0 15 5 15 10 0 6 -7 10 -15 10 -8 0
-15 -4 -15 -10z"/>
<path d="M3540 3928 c0 -23 3 -29 9 -19 8 12 4 51 -5 51 -2 0 -4 -15 -4 -32z"/>
<path d="M4622 3850 c0 -19 2 -27 5 -17 2 9 2 25 0 35 -3 9 -5 1 -5 -18z"/>
<path d="M5900 3864 c0 -8 5 -12 10 -9 6 4 8 11 5 16 -9 14 -15 11 -15 -7z"/>
<path d="M4067 3863 c-11 -10 -8 -43 3 -43 6 0 10 11 10 25 0 26 -2 29 -13 18z"/>
<path d="M3813 3815 c0 -22 2 -30 4 -17 2 12 2 30 0 40 -3 9 -5 -1 -4 -23z"/>
<path d="M4857 3837 c-3 -8 -1 -20 4 -28 6 -10 9 -7 9 14 0 29 -5 35 -13 14z"/>
<path d="M4368 3828 c-3 -7 -2 -35 2 -63 l7 -50 2 63 c1 60 -2 75 -11 50z"/>
<path d="M3570 3805 c0 -15 4 -24 10 -20 6 3 10 12 10 20 0 8 -4 17 -10 20 -6
4 -10 -5 -10 -20z"/>
<path d="M5930 3803 c0 -5 5 -15 10 -23 8 -12 10 -11 10 8 0 12 -4 22 -10 22
-5 0 -10 -3 -10 -7z"/>
<path d="M5448 3793 c29 -2 74 -2 100 0 26 2 2 3 -53 3 -55 0 -76 -1 -47 -3z"/>
<path d="M5077 3720 c-5 -30 -9 -219 -10 -420 l-2 -365 151 -3 151 -3 6 45 c4
25 4 100 2 167 -3 80 0 127 7 136 7 9 45 13 132 13 163 1 281 32 357 92 37 30
89 119 89 151 0 19 5 48 11 65 6 16 8 47 6 69 -3 30 -5 34 -11 18 -8 -24 -56
-33 -56 -11 0 23 -29 27 -40 6 -15 -29 -82 -28 -102 1 -13 20 -15 21 -31 5 -9
-10 -17 -28 -17 -40 0 -13 -7 -29 -15 -36 -8 -7 -15 -18 -15 -24 0 -7 -15 -23
-32 -36 -30 -22 -42 -24 -154 -24 -67 -1 -125 2 -129 6 -4 4 -10 54 -12 112
-3 58 -10 103 -14 100 -5 -3 -9 -13 -9 -22 -1 -51 -98 -84 -121 -41 l-11 21
-20 -21 c-14 -15 -29 -21 -54 -19 -37 2 -41 8 -47 78 -2 30 -4 28 -10 -20z"/>
<path d="M3608 3734 c-13 -13 -9 -69 7 -90 8 -10 15 -38 15 -62 0 -24 5 -53
11 -64 6 -11 15 -44 19 -72 5 -28 18 -87 30 -131 12 -44 25 -96 29 -115 24
-101 35 -140 52 -185 10 -28 19 -58 19 -68 0 -15 14 -17 149 -17 l149 0 6 48
c4 26 15 94 26 152 27 155 38 244 46 350 8 105 23 140 60 140 23 0 24 -3 24
-61 0 -34 7 -102 15 -153 9 -50 20 -120 26 -156 5 -36 17 -103 25 -150 8 -47
18 -104 21 -128 l6 -43 151 3 c126 3 151 5 151 18 0 8 9 42 19 75 38 124 99
362 116 447 5 26 13 56 19 67 6 11 11 42 11 69 0 32 5 54 15 62 17 14 21 70 5
70 -5 0 -10 -6 -10 -14 0 -7 -9 -25 -21 -40 -26 -33 -83 -37 -99 -6 -6 11 -15
20 -21 20 -6 0 -13 -9 -16 -20 -4 -13 -14 -20 -29 -20 -19 0 -26 7 -31 31 -7
37 -23 20 -23 -26 0 -17 -9 -56 -20 -88 -11 -31 -20 -72 -20 -91 0 -57 -12
-96 -32 -107 -30 -16 -45 4 -52 73 -4 34 -14 71 -22 82 -8 12 -14 44 -14 76 0
61 -14 97 -26 67 -5 -13 -18 -17 -64 -17 -51 0 -58 3 -64 23 l-7 22 -16 -22
c-21 -31 -87 -32 -103 -3 -14 26 -26 25 -33 -1 -8 -29 -51 -22 -55 9 -2 12 -7
22 -12 22 -13 0 -20 -28 -20 -76 0 -25 -6 -55 -14 -67 -8 -12 -17 -51 -21 -87
-9 -77 -19 -100 -46 -100 -24 0 -39 35 -39 93 -1 23 -9 60 -20 82 -11 22 -19
58 -20 81 0 49 -8 60 -26 36 -13 -16 -14 -15 -20 6 -8 27 -20 28 -34 2 -8 -15
-21 -20 -54 -20 -37 0 -45 4 -50 23 l-6 22 -19 -25 c-22 -27 -27 -21 -33 33
-2 16 -6 25 -10 21z"/>
<path d="M5690 3731 c0 -6 5 -13 10 -16 6 -3 10 1 10 9 0 9 -4 16 -10 16 -5 0
-10 -4 -10 -9z"/>
</g>
</svg>
